PathFileType	4	(X/Y/Z)	63_2_56_p0_0-353.trc
DataRate	CameraRate	NumFrames	NumMarkers	Units	OrigDataRate	OrigDataStartFrame	OrigNumFrames
60.0	60.0	7	27	m	60.0	177	354
Frame#	Time	RHip			RKnee			RAnkle			RBigToe			RSmallToe			RHeel			LHip			LKnee			LAnkle			LBigToe			LSmallToe			LHeel			Neck			Head			Nose			RShoulder			RElbow			RWrist			RThumb			RIndex			RPinky			LShoulder			LElbow			LWrist			LThumb			LIndex			LPinky			
		X1	Y1	Z1	X2	Y2	Z2	X3	Y3	Z3	X4	Y4	Z4	X5	Y5	Z5	X6	Y6	Z6	X7	Y7	Z7	X8	Y8	Z8	X9	Y9	Z9	X10	Y10	Z10	X11	Y11	Z11	X12	Y12	Z12	X13	Y13	Z13	X14	Y14	Z14	X15	Y15	Z15	X16	Y16	Z16	X17	Y17	Z17	X18	Y18	Z18	X19	Y19	Z19	X20	Y20	Z20	X21	Y21	Z21	X22	Y22	Z22	X23	Y23	Z23	X24	Y24	Z24	X25	Y25	Z25	X26	Y26	Z26	X27	Y27	Z27	
177	2.95	0.32166066605708127	0.5850403312838522	0.7948945820111564	0.34159631022135567	0.7373644350167993	1.1649015348858645	0.3378707305371463	0.9151188527333564	1.58499659729199	0.3159817883848254	0.6793877140720591	1.6138582551221305	0.37663309112473015	0.7217578281234946	1.6073074606217987	0.3248333237482085	0.9856425677282517	1.6387688737841013	0.12925960417559093	0.5598818499699051	0.8009429624209239	0.15399226116443718	0.7043378441725014	1.1588741460434802	0.1609591064408086	0.8865565549236027	1.5613199696987183	0.13262336431280933	0.647837701554685	1.5970792271208945	0.08333926670727806	0.7273403446207706	1.6010252290474352	0.1899821005783119	0.9798463990341919	1.6387976073974373	0.18693456828898825	0.4224538224211877	0.23205034249039183	0.1914609491256331	0.2830601171887386	0.013490421695531031	0.19112829410826418	0.2787003243437303	0.15196354052387578	0.34835659793972895	0.4265536424218235	0.3180467907794184	0.40254865034876725	0.5307756337082543	0.5776589364423481	0.3631565393733768	0.498069466058076	0.81086388805362	0.3098066569953935	0.47446214973285944	0.9151325894081646	0.34316602200295415	0.5071635892691246	0.9326448712783223	0.36862501336888104	0.5598857678456798	0.9381365245444324	0.04003896388597707	0.4646094869194352	0.31696922284493667	0.03380722759463517	0.4868898971718012	0.5932093008473197	0.07070525785765781	0.47105503921997943	0.7957826837542391	0.15082295035785603	0.5253041921134769	0.8808835927006872	0.1456332289442913	0.5166984094777363	0.8965613076245047	0.06466649065136516	0.5411221897349168	0.909915994431763
178	2.966666666666667	0.3217230883332639	0.5855460219513371	0.7950422799130809	0.3415843477077026	0.7373955785192954	1.164962478009051	0.3378605756391729	0.9153128801313858	1.5849763207119199	0.3159634562811941	0.6792057873964014	1.6138303194591523	0.37666017045043476	0.721802363835141	1.607314929345383	0.324833660838695	0.9857483018516126	1.6387495959108929	0.12577594242008575	0.5743786496270052	0.8021856591452278	0.15392138966790006	0.7041370362571207	1.1589151354763	0.1564502204556671	0.870987223096035	1.5570909810089237	0.1334299393573656	0.6460294008080949	1.5927154175687843	0.08324597825799974	0.7265027775182101	1.6005892292329995	0.1897645739355511	0.9794902381908664	1.6386493341206256	0.18694721105976692	0.42240843006847656	0.23205524274405764	0.19146483631824057	0.28315875821311515	0.013438776120564022	0.1910994564725324	0.2786440978989095	0.1519951621793181	0.34840459749131963	0.42665333091461416	0.3180431123630451	0.4026068631108482	0.5308692792363222	0.577706722162036	0.36317791441410596	0.4980452632495967	0.8108796943760168	0.30977084023028234	0.47439955266071926	0.9151064775196788	0.34312042097634443	0.5070743318847415	0.9326427742053336	0.36863767350142845	0.5598768258686916	0.9382729886531529	0.04422331790436125	0.4667098939860137	0.3165643775362091	0.030288033026960363	0.47456215668451124	0.593494222073841	0.07070525102218941	0.4710063621337079	0.7957885831817392	0.15079566228754449	0.5253077818082452	0.8809774697725509	0.1458869844314798	0.5164091491759425	0.8998384515094608	0.0646341161529041	0.5408877091292383	0.9099910668070604
179	2.9833333333333334	0.3216393215564258	0.585294395782941	0.7949143651582008	0.34160269981058766	0.7373704983319278	1.1649673244517489	0.33787453634284276	0.9151962293181136	1.5849642732783704	0.31525611836782996	0.6763500667628773	1.6129059937089756	0.3767958120924241	0.7221764080859173	1.6073050573370338	0.3248302993115481	0.9857989492058046	1.6387397519788893	0.12924702008133734	0.5599046484012663	0.800973816688227	0.15490917136218563	0.7070341716548048	1.1635929584692886	0.1609364102235386	0.886501244184731	1.5613218803551803	0.13726144782676603	0.6493209022310863	1.5972918680971702	0.08335265160447505	0.7267647102004492	1.6006923528759438	0.18983752140880614	0.9801631113294883	1.6388743567569588	0.18694412152837325	0.4224746479944902	0.23205163285191127	0.19147527280346535	0.2831557980008789	0.013429155270179646	0.19107386173610896	0.2787043549569003	0.15201228673172706	0.3484144163411647	0.4267372301541272	0.31803093496071855	0.4025621136576629	0.5307495209230065	0.5776302988013354	0.3631820271208263	0.49810517022152145	0.8108969271207189	0.30979204420927864	0.47434603827762867	0.9151357580682299	0.3431316995018937	0.5070756487367315	0.9326333372686505	0.3686601505087554	0.5600028952891719	0.9382628893727699	0.04421024866035424	0.46675132095812916	0.31657980308055556	0.030317512326413464	0.4745622447481288	0.5935359074112131	0.0707083588383548	0.4709912767721558	0.7958232476239696	0.15081837670677495	0.525412431377339	0.880988207264461	0.14597045987196478	0.5164574671468438	0.8998488308089562	0.06465059081862772	0.5407244746277317	0.9100663280003032
180	3.0	0.321682491502603	0.5856833602698268	0.7951997478468453	0.34159685561586445	0.7371850066957476	1.1650597703761059	0.3379803062548141	0.9151620688413161	1.5849114504652924	0.31191699732674755	0.6791290093377252	1.6134899288405666	0.37679623875949075	0.7226852945226994	1.607427599628349	0.32496762579765986	0.985641400112501	1.6388841881549476	0.12915168819576667	0.5599217608626499	0.8010460810413622	0.15491344556773073	0.7071166397710915	1.1635657887125679	0.15664513198906327	0.8709009391452762	1.5568386609736486	0.12897196717587478	0.6329323786336053	1.5843726578723913	0.0828726757429647	0.7279360031766947	1.596818731436756	0.19304088868106872	0.9595066203991468	1.6324352337190884	0.18689621805119055	0.42276953023752867	0.23202467478080416	0.1913537890097835	0.28302732414489734	0.013428570745311655	0.19498550955793825	0.28951692100395243	0.14995881597726182	0.3483415232379461	0.42678215293343336	0.3180616858177241	0.40255030098607	0.5309915111233279	0.5776901414059811	0.36835923528998915	0.5087772073307094	0.8074578441615035	0.3098606418684765	0.47451554190281287	0.9149930378550556	0.3391208756404853	0.504296932861059	0.928731488157587	0.3690487588005513	0.5585817995074513	0.934367866154882	0.044232300422168476	0.4669478441369855	0.31666977884637143	0.030225073477006693	0.47446754618349446	0.5935210037061355	0.07075734413601774	0.4708281851541836	0.79583886460912	0.15091544316767042	0.5252304559361579	0.8810264642624799	0.14604896067450784	0.5164129517204555	0.8998016640487525	0.06457980306773298	0.5396185652342274	0.9099761552110971
181	3.0166666666666666	0.3216497361884585	0.5854789476029455	0.7950217091162373	0.3416071908035871	0.7372481809999233	1.1651515574009752	0.33271859913324814	0.8987206374295352	1.5804866006668192	0.3119057780433127	0.6790583690504846	1.6135513710244564	0.376666627635632	0.7228317805534263	1.6075007738925937	0.32490148756768916	0.9855989882586055	1.638884651392165	0.1256559764260881	0.5741163525098801	0.8021703622249208	0.1549323716488196	0.7071716251330217	1.1635445761368703	0.16148206558413297	0.8739355344507683	1.5576988204633826	0.12902362169018142	0.6331111702012416	1.5843839359902734	0.0829917893889579	0.7281802758914154	1.5968564226263668	0.1930073966747695	0.9595786514339861	1.6324760416708477	0.18692899472387484	0.4227729609422784	0.2320162416599375	0.19136763275297553	0.2830987251169598	0.013422801462453286	0.19459376361594613	0.28800552553572684	0.1470774510071137	0.3484157272531533	0.4269890623950814	0.31806576768028444	0.40247096258692266	0.5308855453622938	0.5775930654296079	0.367375404155256	0.5065706597988648	0.8033155065700017	0.30989210594070754	0.4745542252555263	0.9150723965421156	0.3477525339561633	0.5192076546556963	0.9337864149180052	0.36871143922625976	0.5597932801968503	0.9380933171006739	0.04423085757599901	0.46689863939001264	0.3166394063471784	0.03024600171009239	0.47445136747984806	0.5935216234963869	0.07480593750501449	0.47227142060082294	0.7957301530631314	0.15084080777844006	0.5255517117839286	0.881052523058138	0.14597583864846864	0.5165140418495491	0.8998138246268477	0.06458379576418755	0.5396130105083676	0.9099663176355447
182	3.033333333333333	0.3216382736312083	0.5856001742767317	0.7951106166781631	0.34161972542819447	0.7372400803443482	1.1650305054155972	0.3379239294786768	0.9152922402168617	1.584837818981567	0.3165352142743727	0.6919194359686394	1.6176465934774829	0.37655142920380086	0.7222223938742134	1.6073365958735728	0.32486784991892453	0.9857540380752411	1.6386530071762568	0.1292060837215914	0.5600262328727997	0.8010216345588362	0.1538900480143623	0.7043013680199032	1.1587939519578365	0.15655075955481518	0.8709492445931868	1.5569158796514297	0.13257272270309092	0.6479832105578042	1.5970174410059919	0.08273461276412879	0.7277761922182971	1.5968766372638632	0.19302879364309414	0.9600058704643278	1.6326425620066287	0.18647295972216243	0.4207654200279393	0.22859008724937022	0.1913916841550097	0.283007230343562	0.013552973466719898	0.1945925264145411	0.28797510490402994	0.14701297310501346	0.3483566315041216	0.42678924729245127	0.3180292102356384	0.4024525805388678	0.5308592881444922	0.5775981737721699	0.3680252616241942	0.5100769333763283	0.8114549783899327	0.3098297342434611	0.4745496349175831	0.9150588498213917	0.34311240086910305	0.5071968753719132	0.932758974482046	0.36873307346368295	0.5598674044587982	0.9382402435475918	0.044190974811067416	0.46678199380452856	0.3165501865041698	0.030269916465210673	0.47457637594218516	0.5934905691960105	0.07858868603479616	0.4583726875849416	0.7947103727186555	0.15085739294016726	0.5252744699397491	0.881121565679968	0.14580152055662188	0.5164648711243545	0.8966929001440116	0.06554959021318704	0.5422475703121555	0.9138678583958505
183	3.05	0.32166907906731446	0.5852570841397456	0.7950141006559979	0.3416090632542839	0.7372498538398295	1.165039010003441	0.337948503767254	0.9151293833761119	1.5848025868150146	0.31167586388420776	0.6785717415611913	1.6134995838703696	0.37639073208848567	0.7225102854097888	1.6074241831037726	0.32488654238278786	0.9856380613461926	1.6386484445233813	0.12922297242523026	0.5597342398627332	0.8010474907291288	0.15391166254429012	0.7042349347330187	1.158756121368439	0.16144813282964013	0.8738266837066508	1.5576306998885943	0.133365109345236	0.6463810807666481	1.5928686268303247	0.08282074402731124	0.7281454294372912	1.5969902581999145	0.1930728407759538	0.9600604780717092	1.6326321267728343	0.18645299710957697	0.42078612391122516	0.2285729063541336	0.19137598349032695	0.28305303251132996	0.013495852795370708	0.19462541645404982	0.287825835112762	0.14687605127331596	0.35293824406935587	0.4282696345072493	0.3176959341400568	0.402486245450558	0.5307872755659189	0.5775175116650458	0.3680120111813713	0.5101634814897471	0.811456717568054	0.3098925233950521	0.4746178228870909	0.9150728989114931	0.34316391131102414	0.5072868966040414	0.9327449715963563	0.3687668651953096	0.5598729616078761	0.9381736270973472	0.04418556987343555	0.466818086861092	0.3166111489331843	0.030259554337618295	0.47451225751478016	0.593489288378684	0.07079022598400532	0.4708693908620882	0.7958868317739969	0.15087328823501991	0.5252780849829952	0.8810191878273775	0.1459802441185674	0.5165784348390174	0.896539653065473	0.0655588324006362	0.5420997070634619	0.913869403248782
